<svg width="24" height="24" viewBox="0 0 24 24" fill="#787D85" xmlns="http://www.w3.org/2000/svg">
<path d="M5.05938 4C5.05884 4 5.05824 4 5.0577 4C4.86854 4 4.69063 4.07374 4.55628 4.20774C4.42046 4.34323 4.34564 4.52364 4.34564 4.71569V15.4474C4.34564 15.8409 4.66706 16.1619 5.06221 16.1629C6.72807 16.1669 9.51906 16.5141 11.4445 18.5289V7.29793C11.4445 7.16452 11.4104 7.0392 11.3461 6.9355C9.76579 4.39057 6.72902 4.00391 5.05938 4Z" />
<path d="M19.6544 15.4474V4.71569C19.6544 4.52364 19.5796 4.34323 19.4438 4.20774C19.3094 4.07374 19.1314 4 18.9424 4C18.9418 4 18.9412 4 18.9407 4C17.2711 4.00397 14.2343 4.39064 12.654 6.93556C12.5897 7.03927 12.5557 7.16459 12.5557 7.29799V18.5289C14.4811 16.514 17.272 16.1668 18.9379 16.1629C19.333 16.1619 19.6544 15.8409 19.6544 15.4474Z" />
<path d="M21.2845 6.20795H20.7655V15.1804C20.7655 16.1852 19.9469 17.0045 18.9405 17.007C17.5275 17.0104 15.1977 17.2867 13.5477 18.8484C16.4014 18.1497 19.4098 18.6039 21.1243 18.9946C21.3383 19.0433 21.5595 18.993 21.7311 18.8563C21.902 18.7199 22 18.5161 22 18.2973V6.9235C22.0001 6.52896 21.679 6.20795 21.2845 6.20795Z" />
<path d="M3.23448 15.1804V6.20795H2.71556C2.32108 6.20795 2 6.52896 2 6.92351V18.2971C2 18.5159 2.09805 18.7197 2.26896 18.8561C2.44034 18.9927 2.66135 19.0433 2.87576 18.9944C4.59024 18.6036 7.59867 18.1495 10.4523 18.8482C8.80231 17.2866 6.47247 17.0103 5.05947 17.007C4.05321 17.0046 3.23448 16.1852 3.23448 15.1804Z" />
</svg>
