<svg width="24" height="24" viewBox="0 0 24 24" fill="#787D85" xmlns="http://www.w3.org/2000/svg">
<path d="M15.09 4.44638L6.92174 8.62838L3.67499 7.03088L11.6992 3.06863C11.8792 2.97712 12.0952 2.97712 12.2842 3.06863L15.09 4.44638Z" />
<path d="M20.316 7.0309L12.0045 11.1484L8.89202 9.61465L8.44202 9.3859L16.6193 5.20465L17.0693 5.43265L20.316 7.0309Z" />
<path d="M11.3385 12.3349L11.3295 20.9997L3.369 16.8454C3.144 16.7269 3 16.4892 3 16.2334V8.21741L6.3735 9.87941V12.8014C6.3735 13.1757 6.6795 13.4862 7.0485 13.4862C7.4175 13.4862 7.7235 13.1757 7.7235 12.8014V10.5552L8.1735 10.7742L11.3385 12.3349Z" />
<path d="M20.991 8.22638L12.6885 12.3259L12.6795 20.9906L21 16.6459L20.991 8.22638Z" />
</svg>
