<svg width="24" height="24" viewBox="0 0 24 24" fill="#787D85" xmlns="http://www.w3.org/2000/svg">
<path d="M18.6537 10.7616C18.7086 10.4706 18.7363 10.1739 18.7363 9.875C18.7363 7.18678 16.4891 5 13.7266 5C11.9631 5 10.3286 5.91408 9.43056 7.36661C8.21834 6.9842 6.97459 7.14818 5.94992 7.8353C4.92526 8.52188 4.3137 9.60893 4.26423 10.7975C2.9172 11.4201 2 12.7457 2 14.2083C2 14.4622 2.0632 14.7098 2.11155 14.9499L2.11211 14.9505C2.47199 16.7178 4.07939 18 5.93359 18H17.0664C19.2147 18 21 16.2988 21 14.2083C21 12.7299 20.0703 11.399 18.6537 10.7616Z" />
</svg>
