<svg width="142" height="41" viewBox="0 0 142 41" fill="#7653FC" xmlns="http://www.w3.org/2000/svg">
<path d="M60.76 32L55.6 15.2H55.48C55.5 15.6 55.53 16.2 55.57 17C55.61 17.8 55.65 18.66 55.69 19.58C55.73 20.48 55.75 21.3 55.75 22.04V32H51.7V10.58H57.88L62.95 26.96H63.04L68.41 10.58H74.59V32H70.36V21.86C70.36 21.18 70.37 20.4 70.39 19.52C70.43 18.64 70.46 17.81 70.48 17.03C70.52 16.23 70.55 15.63 70.57 15.23H70.45L64.93 32H60.76ZM77.3008 15.62H82.1908L85.2808 24.83C85.4408 25.27 85.5608 25.73 85.6408 26.21C85.7208 26.67 85.7808 27.16 85.8208 27.68H85.9108C85.9708 27.16 86.0508 26.67 86.1508 26.21C86.2708 25.73 86.4008 25.27 86.5408 24.83L89.5708 15.62H94.3708L87.4408 34.1C86.8208 35.8 85.9108 37.07 84.7108 37.91C83.5308 38.77 82.1608 39.2 80.6008 39.2C80.1008 39.2 79.6608 39.17 79.2808 39.11C78.9208 39.07 78.6008 39.02 78.3208 38.96V35.42C78.5408 35.46 78.8008 35.5 79.1008 35.54C79.4208 35.58 79.7508 35.6 80.0908 35.6C81.0308 35.6 81.7708 35.31 82.3108 34.73C82.8708 34.17 83.2808 33.49 83.5408 32.69L83.8108 31.88L77.3008 15.62Z" />
<path d="M103.69 31.25C104.15 31.25 104.57 31.22 104.95 31.16C105.35 31.1 105.71 31.01 106.03 30.89V31.88C105.71 32 105.35 32.1 104.95 32.18C104.55 32.26 104.1 32.3 103.6 32.3C102.22 32.3 101.23 31.91 100.63 31.13C100.03 30.35 99.73 29.21 99.73 27.71V17.12H97.33V16.34L99.73 16.07L100.09 12.23H100.9V16.1H105.94V17.12H100.9V27.62C100.9 28.8 101.1 29.7 101.5 30.32C101.92 30.94 102.65 31.25 103.69 31.25ZM122.504 24.05C122.504 25.65 122.244 27.07 121.724 28.31C121.224 29.55 120.454 30.53 119.414 31.25C118.374 31.95 117.074 32.3 115.514 32.3C114.014 32.3 112.744 31.95 111.704 31.25C110.684 30.55 109.904 29.58 109.364 28.34C108.844 27.1 108.584 25.67 108.584 24.05C108.584 21.51 109.204 19.5 110.444 18.02C111.704 16.54 113.444 15.8 115.664 15.8C117.244 15.8 118.534 16.16 119.534 16.88C120.534 17.6 121.274 18.58 121.754 19.82C122.254 21.06 122.504 22.47 122.504 24.05ZM109.784 24.05C109.784 26.19 110.254 27.93 111.194 29.27C112.134 30.59 113.574 31.25 115.514 31.25C116.854 31.25 117.954 30.95 118.814 30.35C119.674 29.73 120.304 28.88 120.704 27.8C121.104 26.72 121.304 25.47 121.304 24.05C121.304 22.69 121.114 21.47 120.734 20.39C120.354 19.31 119.744 18.45 118.904 17.81C118.084 17.17 117.004 16.85 115.664 16.85C113.764 16.85 112.304 17.49 111.284 18.77C110.284 20.03 109.784 21.79 109.784 24.05ZM133.815 15.8C135.895 15.8 137.485 16.49 138.585 17.87C139.705 19.25 140.265 21.27 140.265 23.93C140.265 26.61 139.675 28.68 138.495 30.14C137.315 31.58 135.675 32.3 133.575 32.3C132.075 32.3 130.875 31.96 129.975 31.28C129.095 30.6 128.475 29.78 128.115 28.82H128.055C128.075 29.42 128.085 30.04 128.085 30.68C128.105 31.3 128.115 31.9 128.115 32.48V39.02H126.975V16.1H127.935L128.055 19.58H128.115C128.355 18.92 128.725 18.31 129.225 17.75C129.725 17.17 130.355 16.7 131.115 16.34C131.875 15.98 132.775 15.8 133.815 15.8ZM133.725 16.85C131.865 16.85 130.465 17.47 129.525 18.71C128.605 19.93 128.135 21.67 128.115 23.93V24.11C128.115 26.53 128.585 28.33 129.525 29.51C130.465 30.67 131.795 31.25 133.515 31.25C135.275 31.25 136.635 30.62 137.595 29.36C138.575 28.1 139.065 26.29 139.065 23.93C139.065 19.21 137.285 16.85 133.725 16.85Z" />
<path d="M41 2.74391C41 2.0926 40.4622 1.56458 39.7988 1.56458C39.1355 1.56458 38.5977 2.0926 38.5977 2.74391C38.5977 4.02254 37.4609 5.10266 36.1152 5.10266H30.6968C27.6077 3.55891 24.0892 2.74399 20.5 2.74399C16.9108 2.74399 13.3923 3.55891 10.3032 5.10266H4.89942C3.54586 5.10274 2.40234 4.02254 2.40234 2.74391C2.40234 2.0926 1.86454 1.56458 1.20117 1.56458C0.537805 1.56458 0 2.0926 0 2.74391V6.28199C0 8.46997 0.88198 10.5318 2.48386 12.0935C0.856035 14.7063 0 17.569 0 20.4341C0 30.1884 9.19625 38.1241 20.5 38.1241C31.8037 38.1241 41 30.1884 41 20.4341C41 17.5734 40.1464 14.7145 38.523 12.1048C40.0529 10.6109 41 8.55205 41 6.28207V2.74391ZM20.5001 5.10274C22.4136 5.10274 24.3025 5.36093 26.0992 5.86026C24.7576 6.38813 23.5262 7.18253 22.474 8.21712C21.6723 9.00547 21.0131 9.89594 20.5074 10.8581C20.0017 9.89594 19.3425 9.00547 18.5407 8.21712C17.487 7.18096 16.2535 6.38577 14.9094 5.8579C16.7036 5.36015 18.5895 5.10274 20.5001 5.10274ZM20.5 24.682C20.9492 25.4139 21.5108 26.072 22.1611 26.6335L20.5 29.7097L18.8389 26.6335C19.4892 26.072 20.0508 25.4139 20.5 24.682ZM13.293 26.3308C9.98134 26.3308 7.28711 23.6855 7.28711 20.4341C7.28711 17.1827 9.98134 14.5374 13.293 14.5374C16.6046 14.5374 19.2988 17.1827 19.2988 20.4341C19.2988 23.6855 16.6046 26.3308 13.293 26.3308ZM21.7012 20.4341C21.7012 20.3403 21.704 20.2471 21.7084 20.1543C21.7167 20.098 21.7225 20.0407 21.7223 19.9821V19.9596C21.9695 16.9294 24.5582 14.5374 27.707 14.5374C31.0187 14.5374 33.7129 17.1827 33.7129 20.4341C33.7129 23.6855 31.0187 26.3308 27.707 26.3308C24.3954 26.3308 21.7012 23.6855 21.7012 20.4341ZM2.42621 6.80593C3.17278 7.23332 4.0212 7.4614 4.89942 7.4614H10.5791H10.585H10.8906C13.139 7.4614 15.2521 8.32169 16.8407 9.88376C18.1513 11.1725 18.9743 12.8112 19.2204 14.5847C17.8662 13.2618 16.0568 12.3883 14.0459 12.2122C13.956 12.1911 13.8626 12.1787 13.7661 12.1787H8.50286C7.1907 12.1787 5.97455 11.7755 4.97846 11.0916C4.91423 11.0187 4.84104 10.9517 4.7568 10.8942C4.70067 10.8559 4.64205 10.8242 4.58223 10.7965C3.3801 9.81952 2.57227 8.40322 2.42621 6.80593ZM38.5977 20.4341C38.5977 28.8878 30.4791 35.7654 20.5 35.7654C10.5209 35.7654 2.40234 28.8878 2.40234 20.4341C2.40234 18.0745 3.09582 15.7032 4.41687 13.5137C5.36259 14.0225 6.39808 14.3501 7.47769 14.4773C5.88062 15.9808 4.88477 18.0953 4.88477 20.4341C4.88477 24.9861 8.65668 28.6894 13.293 28.6894C14.5513 28.6894 15.7457 28.4161 16.8185 27.9277L19.4387 32.7799C19.6471 33.1656 20.0553 33.4068 20.5 33.4068C20.9447 33.4068 21.3529 33.1656 21.5613 32.7799L24.1815 27.9277C25.2543 28.4161 26.4488 28.6894 27.707 28.6894C32.3433 28.6894 36.1152 24.9861 36.1152 20.4341C36.1152 18.096 35.1199 15.982 33.5237 14.4785C34.6228 14.3509 35.6581 14.0185 36.5878 13.5214C37.9058 15.7088 38.5977 18.0775 38.5977 20.4341ZM36.3987 10.8154C36.3475 10.8405 36.2972 10.8681 36.2489 10.9011C36.1712 10.954 36.1028 11.0151 36.042 11.0813C35.0456 11.7713 33.8271 12.1787 32.5117 12.1787H27.2484C27.1547 12.1787 27.0639 12.1902 26.9764 12.2102C24.9648 12.381 23.1538 13.2499 21.7964 14.5685C22.0453 12.8012 22.8673 11.1685 24.1739 9.88368C25.7625 8.32161 27.8756 7.46133 30.1239 7.46133H30.3957C30.3984 7.46133 30.401 7.46156 30.4037 7.46156C30.406 7.46156 30.4083 7.46133 30.4106 7.46133H36.1152C36.9885 7.46133 37.8315 7.23544 38.5732 6.81222C38.425 8.41753 37.6096 9.83918 36.3987 10.8154Z" />
<path d="M13.5 17.6835L14.5103 20.2744H17.7798L15.1347 21.8758L16.145 24.4667L13.5 22.8654L10.855 24.4667L11.8653 21.8758L9.22025 20.2744H12.4897L13.5 17.6835Z" />
<path d="M27.5 17.6835L28.5103 20.2744H31.7798L29.1347 21.8758L30.145 24.4667L27.5 22.8654L24.855 24.4667L25.8653 21.8758L23.2202 20.2744H26.4897L27.5 17.6835Z" />
</svg>
